#N canvas 951 0 956 931 12;
#X obj 8 56 tgl 19 0 empty empty empty 0 -10 0 12 #fcfcfc #000000 #000000 0 1;
#X obj 38 90 vsl 19 162 0 127 0 0 empty empty empty 0 -9 0 12 #fcfcfc #000000 #000000 0 1;
#X obj 152 193 readsf~;
#X obj 151 145 openpanel;
#X msg 151 99 soud.mid;
#X obj 156 263 dac~;
#X connect 0 0 1 0;
#X connect 2 0 5 0;
#X connect 3 0 2 0;
#X connect 4 0 3 0;
